<svg width="55" height="55" viewBox="0 0 55 55" fill="none" xmlns="http://www.w3.org/2000/svg">
<path d="M27.3395 5.31934C34.5818 5.31934 35.4395 5.3469 38.2996 5.4774C40.9441 5.59809 42.3803 6.03996 43.3361 6.4113C44.6021 6.90334 45.5057 7.4912 46.4548 8.44028C47.4039 9.38936 47.9917 10.293 48.4837 11.559C48.8551 12.5148 49.297 13.951 49.4177 16.5954C49.5482 19.4556 49.5757 20.3133 49.5757 27.5557C49.5757 34.798 49.5482 35.6558 49.4177 38.5158C49.297 41.1603 48.8551 42.5965 48.4837 43.5524C47.9917 44.8183 47.4039 45.722 46.4548 46.671C45.5057 47.6201 44.6021 48.208 43.3361 48.6999C42.3803 49.0714 40.9441 49.5132 38.2996 49.6339C35.44 49.7644 34.5822 49.792 27.3395 49.792C20.0967 49.792 19.2389 49.7644 16.3793 49.6339C13.7348 49.5132 12.2986 49.0714 11.3429 48.6999C10.0768 48.208 9.17318 47.6201 8.2241 46.671C7.27501 45.722 6.68715 44.8183 6.19523 43.5524C5.82378 42.5965 5.38191 41.1603 5.26122 38.5159C5.13072 35.6558 5.10316 34.798 5.10316 27.5557C5.10316 20.3133 5.13072 19.4556 5.26122 16.5955C5.38191 13.951 5.82378 12.5148 6.19523 11.559C6.68715 10.293 7.27501 9.38936 8.2241 8.44028C9.17318 7.4912 10.0768 6.90334 11.3429 6.4113C12.2986 6.03996 13.7348 5.59809 16.3792 5.4774C19.2394 5.3469 20.0971 5.31934 27.3395 5.31934ZM27.3395 0.432129C19.9731 0.432129 19.0495 0.463352 16.1565 0.595352C13.2695 0.727136 11.2979 1.18558 9.57251 1.85613C7.78891 2.54929 6.2763 3.47673 4.76843 4.9846C3.26055 6.49248 2.33311 8.00509 1.63996 9.7887C0.969408 11.5141 0.510963 13.4857 0.379179 16.3727C0.24718 19.2656 0.216064 20.1893 0.216064 27.5557C0.216064 34.922 0.24718 35.8457 0.379179 38.7386C0.510963 41.6257 0.969408 43.5973 1.63996 45.3226C2.33311 47.1061 3.26055 48.6188 4.76843 50.1267C6.2763 51.6346 7.78891 52.562 9.57251 53.2552C11.2979 53.9257 13.2695 54.3842 16.1565 54.516C19.0495 54.648 19.9731 54.6791 27.3395 54.6791C34.7058 54.6791 35.6295 54.648 38.5224 54.516C41.4094 54.3842 43.381 53.9257 45.1064 53.2552C46.89 52.562 48.4026 51.6346 49.9105 50.1267C51.4183 48.6188 52.3458 47.1062 53.0389 45.3226C53.7095 43.5973 54.1679 41.6257 54.2997 38.7386C54.4317 35.8457 54.4629 34.922 54.4629 27.5557C54.4629 20.1893 54.4317 19.2656 54.2997 16.3727C54.1679 13.4857 53.7095 11.5141 53.0389 9.7887C52.3458 8.00509 51.4183 6.49248 49.9105 4.9846C48.4026 3.47673 46.89 2.54929 45.1064 1.85613C43.381 1.18558 41.4094 0.727136 38.5224 0.595352C35.6295 0.463352 34.7058 0.432129 27.3395 0.432129ZM27.3395 13.6273C19.6471 13.6273 13.4112 19.8633 13.4112 27.5557C13.4112 35.248 19.6471 41.484 27.3395 41.484C35.0318 41.484 41.2677 35.248 41.2677 27.5557C41.2677 19.8633 35.0318 13.6273 27.3395 13.6273ZM27.3395 36.5969C22.3462 36.5969 18.2983 32.5489 18.2983 27.5557C18.2983 22.5624 22.3462 18.5145 27.3395 18.5145C32.3327 18.5145 36.3807 22.5624 36.3807 27.5557C36.3807 32.5489 32.3327 36.5969 27.3395 36.5969ZM45.0728 13.0771C45.0728 14.8747 43.6156 16.3319 41.818 16.3319C40.0204 16.3319 38.5632 14.8747 38.5632 13.0771C38.5632 11.2795 40.0204 9.82229 41.818 9.82229C43.6156 9.82229 45.0728 11.2795 45.0728 13.0771Z" fill="#0A0A08"/>
</svg>
