<svg width="34" height="30" viewBox="0 0 34 30" fill="none" xmlns="http://www.w3.org/2000/svg">
<path d="M22.6099 0.73L27.9616 10H33.6666V13.3333H31.7216L30.4599 28.4717C30.4252 28.8881 30.2353 29.2764 29.9279 29.5595C29.6204 29.8425 29.2178 29.9998 28.7999 30H5.19992C4.782 29.9998 4.37941 29.8425 4.07195 29.5595C3.7645 29.2764 3.57461 28.8881 3.53992 28.4717L2.27659 13.3333H0.333252V10H6.03658L11.3899 0.73L14.2766 2.39667L9.88659 10H24.1116L19.7233 2.39667L22.6099 0.73ZM28.3766 13.3333H5.62158L6.73325 26.6667H27.2649L28.3766 13.3333ZM18.6666 16.6667V23.3333H15.3333V16.6667H18.6666ZM11.9999 16.6667V23.3333H8.66658V16.6667H11.9999ZM25.3333 16.6667V23.3333H21.9999V16.6667H25.3333Z" fill="black"/>
</svg>
