<svg width="46" height="46" viewBox="0 0 46 46" fill="none" xmlns="http://www.w3.org/2000/svg">
<path d="M33.4151 0.0222168C44.2416 0.0222168 45.0889 0.869472 45.0889 11.6945V33.4873C45.0889 44.2462 44.2476 45.0889 33.4872 45.0889H11.6239C0.86346 45.0889 0.0222168 44.2462 0.0222168 33.4873V11.6239C0.0222168 0.863461 0.86346 0.0222168 11.6239 0.0222168H33.4151ZM36.1807 20.2016V15.393C36.1807 15.393 33.5218 15.4065 31.2759 13.4386C29.3891 11.7861 29.2329 8.69005 29.2329 8.69005H24.2035C24.2035 8.69005 24.2035 25.1018 24.2035 27.7172C24.2035 30.3326 21.824 31.6846 20.1174 31.6846C18.8315 31.6846 15.9052 30.7202 15.9052 27.6872C15.9052 24.5025 19.2687 23.6897 20.149 23.6897C21.0293 23.6897 21.3748 23.87 21.3748 23.87V18.794C21.3748 18.794 20.5576 18.7189 19.9597 18.6994C14.8822 18.5356 10.6865 22.8906 10.6865 27.6872C10.6865 31.7387 14.0004 36.6449 20.0543 36.6449C26.5034 36.6449 29.4537 31.5028 29.4537 27.7172C29.4537 24.9516 29.4537 18.2787 29.4537 18.2787C29.4537 18.2787 31.309 19.2702 32.8172 19.7209C34.3254 20.1715 36.1807 20.2016 36.1807 20.2016Z" fill="#1A1A1A"/>
</svg>
